<svg width="1408" height="640" viewBox="0 0 1408 640" fill="none" xmlns="http://www.w3.org/2000/svg">
<g clip-path="url(#clip0_1_734)">
<rect x="66" y="66" width="124" height="124" rx="14" fill="#363D52" stroke="#212532" stroke-width="4"/>
<path d="M168.565 144.367C168.565 144.367 168.43 143.524 168.351 143.532L153.349 145.007C152.155 145.125 151.228 146.096 151.145 147.315L150.732 153.339L139.126 154.183L138.336 148.724C138.161 147.51 137.121 146.595 135.917 146.595H120.083C118.88 146.595 117.84 147.51 117.664 148.724L116.874 154.183L105.268 153.339L104.855 147.315C104.772 146.095 103.845 145.125 102.651 145.007L87.6411 143.532C87.5635 143.524 87.5067 144.368 87.4292 144.368L87.4089 147.678L100.121 149.768L100.537 155.845C100.621 157.075 101.595 158.07 102.802 158.158L118.787 159.321C118.847 159.325 118.907 159.328 118.967 159.328C120.168 159.328 121.206 158.412 121.382 157.198L122.194 151.581H133.806L134.618 157.198C134.794 158.412 135.833 159.327 137.036 159.327C137.095 159.327 137.154 159.325 137.212 159.321L153.198 158.158C154.405 158.07 155.379 157.075 155.463 155.845L155.879 149.768L168.586 147.669L168.565 144.367Z" fill="white"/>
<path d="M87.429 119.407V139.494V142.045V144.367C87.4738 144.367 87.5186 144.369 87.5629 144.373L102.571 145.849C103.357 145.926 103.973 146.571 104.028 147.375L104.491 154.129L117.583 155.082L118.484 148.847C118.601 148.039 119.281 147.44 120.083 147.44H135.917C136.719 147.44 137.399 148.039 137.516 148.847L138.418 155.082L151.51 154.129L151.972 147.375C152.027 146.571 152.643 145.927 153.429 145.849L168.431 144.373C168.476 144.369 168.52 144.367 168.565 144.367V142.375L168.571 142.373V119.407C170.684 116.694 172.686 113.702 174.219 111.184C171.876 107.117 169.005 103.483 165.936 100.115C163.09 101.576 160.326 103.231 157.715 104.991C156.408 103.667 154.937 102.584 153.491 101.452C152.071 100.289 150.471 99.4363 148.953 98.4428C149.405 95.0113 149.628 91.6329 149.718 88.1071C145.801 86.0973 141.625 84.7647 137.4 83.8076C135.713 86.698 134.171 89.8282 132.827 92.8881C131.234 92.6167 129.634 92.5161 128.031 92.4967V92.4941C128.02 92.4941 128.01 92.4967 128 92.4967C127.99 92.4967 127.98 92.4941 127.97 92.4941V92.4967C126.364 92.5161 124.765 92.6167 123.172 92.8881C121.829 89.8282 120.288 86.698 118.598 83.8076C114.376 84.7647 110.199 86.0973 106.282 88.1071C106.372 91.6329 106.596 95.0113 107.049 98.4428C105.528 99.4363 103.929 100.289 102.509 101.452C101.066 102.584 99.5915 103.667 98.2846 104.991C95.6736 103.231 92.9101 101.576 90.0632 100.115C86.9945 103.483 84.1252 107.117 81.7812 111.184C83.6233 114.132 85.5992 117.096 87.429 119.407Z" fill="#478CBF"/>
<path d="M155.101 148.995L154.636 155.786C154.58 156.605 153.942 157.256 153.139 157.315L137.153 158.478C137.114 158.481 137.075 158.482 137.036 158.482C136.242 158.482 135.556 157.888 135.439 157.074L134.522 150.735H121.478L120.561 157.074C120.438 157.927 119.69 158.541 118.848 158.478L102.861 157.315C102.059 157.256 101.42 156.605 101.364 155.786L100.899 148.995L87.4042 147.669C87.4105 149.148 87.4291 150.768 87.4291 151.09C87.4291 165.622 105.509 172.607 127.973 172.688H128H128.028C150.491 172.607 168.565 165.622 168.565 151.09C168.565 150.762 168.584 149.148 168.591 147.669L155.101 148.995Z" fill="#478CBF"/>
<path d="M115.769 129.539C115.769 134.634 111.721 138.761 106.725 138.761C101.732 138.761 97.6818 134.634 97.6818 129.539C97.6818 124.447 101.732 120.322 106.725 120.322C111.721 120.322 115.769 124.447 115.769 129.539Z" fill="white"/>
<path d="M113.593 130.086C113.593 133.465 110.907 136.204 107.59 136.204C104.274 136.204 101.586 133.465 101.586 130.086C101.586 126.706 104.274 123.965 107.59 123.965C110.907 123.965 113.593 126.706 113.593 130.086Z" fill="#414042"/>
<path d="M127.999 139.6C126.391 139.6 125.088 138.392 125.088 136.903V128.413C125.088 126.925 126.391 125.716 127.999 125.716C129.607 125.716 130.913 126.925 130.913 128.413V136.903C130.913 138.392 129.607 139.6 127.999 139.6Z" fill="white"/>
<path d="M140.231 129.539C140.231 134.634 144.28 138.761 149.276 138.761C154.269 138.761 158.318 134.634 158.318 129.539C158.318 124.447 154.269 120.322 149.276 120.322C144.28 120.322 140.231 124.447 140.231 129.539Z" fill="white"/>
<path d="M142.408 130.086C142.408 133.465 145.093 136.204 148.408 136.204C151.726 136.204 154.411 133.465 154.411 130.086C154.411 126.706 151.726 123.965 148.408 123.965C145.093 123.965 142.408 126.706 142.408 130.086Z" fill="#414042"/>
</g>
<path d="M168.565 528.367C168.565 528.367 168.43 527.524 168.351 527.532L153.349 529.007C152.155 529.125 151.228 530.096 151.145 531.315L150.732 537.339L139.126 538.183L138.336 532.724C138.161 531.51 137.121 530.595 135.917 530.595H120.083C118.88 530.595 117.84 531.51 117.664 532.724L116.874 538.183L105.268 537.339L104.855 531.315C104.772 530.095 103.845 529.125 102.651 529.007L87.6411 527.532C87.5635 527.524 87.5067 528.368 87.4292 528.368L87.4089 531.678L100.121 533.768L100.537 539.845C100.621 541.075 101.595 542.07 102.802 542.158L118.787 543.321C118.847 543.325 118.907 543.328 118.967 543.328C120.168 543.328 121.206 542.412 121.382 541.198L122.194 535.581H133.806L134.618 541.198C134.794 542.412 135.833 543.327 137.036 543.327C137.095 543.327 137.154 543.325 137.212 543.321L153.198 542.158C154.405 542.07 155.379 541.075 155.463 539.845L155.879 533.768L168.586 531.669L168.565 528.367Z" fill="white"/>
<path d="M87.429 503.407V523.494V526.045V528.367C87.4738 528.367 87.5186 528.369 87.5629 528.373L102.571 529.849C103.357 529.926 103.973 530.571 104.028 531.375L104.491 538.129L117.583 539.082L118.484 532.847C118.601 532.039 119.281 531.44 120.083 531.44H135.917C136.719 531.44 137.399 532.039 137.516 532.847L138.418 539.082L151.51 538.129L151.972 531.375C152.027 530.571 152.643 529.927 153.429 529.849L168.431 528.373C168.476 528.369 168.52 528.367 168.565 528.367V526.375L168.571 526.373V503.407C170.684 500.694 172.686 497.702 174.219 495.184C171.876 491.117 169.005 487.483 165.936 484.115C163.09 485.576 160.326 487.231 157.715 488.991C156.408 487.667 154.937 486.584 153.491 485.452C152.071 484.289 150.471 483.436 148.953 482.443C149.405 479.011 149.628 475.633 149.718 472.107C145.801 470.097 141.625 468.765 137.4 467.808C135.713 470.698 134.171 473.828 132.827 476.888C131.234 476.617 129.634 476.516 128.031 476.497V476.494C128.02 476.494 128.01 476.497 128 476.497C127.99 476.497 127.98 476.494 127.97 476.494V476.497C126.364 476.516 124.765 476.617 123.172 476.888C121.829 473.828 120.288 470.698 118.598 467.808C114.376 468.765 110.199 470.097 106.282 472.107C106.372 475.633 106.596 479.011 107.049 482.443C105.528 483.436 103.929 484.289 102.509 485.452C101.066 486.584 99.5915 487.667 98.2846 488.991C95.6736 487.231 92.9101 485.576 90.0632 484.115C86.9945 487.483 84.1252 491.117 81.7812 495.184C83.6233 498.132 85.5992 501.096 87.429 503.407Z" fill="#478CBF"/>
<path d="M155.101 532.995L154.636 539.786C154.58 540.605 153.942 541.256 153.139 541.315L137.153 542.478C137.114 542.481 137.075 542.482 137.036 542.482C136.242 542.482 135.556 541.888 135.439 541.074L134.522 534.735H121.478L120.561 541.074C120.438 541.927 119.69 542.541 118.848 542.478L102.861 541.315C102.059 541.256 101.42 540.605 101.364 539.786L100.899 532.995L87.4042 531.669C87.4105 533.148 87.4291 534.768 87.4291 535.09C87.4291 549.622 105.509 556.607 127.973 556.688H128H128.028C150.491 556.607 168.565 549.622 168.565 535.09C168.565 534.762 168.584 533.148 168.591 531.669L155.101 532.995Z" fill="#478CBF"/>
<path d="M115.769 513.539C115.769 518.634 111.721 522.761 106.725 522.761C101.732 522.761 97.6818 518.634 97.6818 513.539C97.6818 508.447 101.732 504.322 106.725 504.322C111.721 504.322 115.769 508.447 115.769 513.539Z" fill="white"/>
<path d="M113.593 514.086C113.593 517.465 110.907 520.204 107.59 520.204C104.274 520.204 101.586 517.465 101.586 514.086C101.586 510.706 104.274 507.965 107.59 507.965C110.907 507.965 113.593 510.706 113.593 514.086Z" fill="#414042"/>
<path d="M127.999 523.6C126.391 523.6 125.088 522.392 125.088 520.903V512.413C125.088 510.925 126.391 509.716 127.999 509.716C129.607 509.716 130.913 510.925 130.913 512.413V520.903C130.913 522.392 129.607 523.6 127.999 523.6Z" fill="white"/>
<path d="M140.231 513.539C140.231 518.634 144.28 522.761 149.276 522.761C154.269 522.761 158.318 518.634 158.318 513.539C158.318 508.447 154.269 504.322 149.276 504.322C144.28 504.322 140.231 508.447 140.231 513.539Z" fill="white"/>
<path d="M142.408 514.086C142.408 517.465 145.093 520.204 148.408 520.204C151.726 520.204 154.411 517.465 154.411 514.086C154.411 510.706 151.726 507.965 148.408 507.965C145.093 507.965 142.408 510.706 142.408 514.086Z" fill="#414042"/>
<g clip-path="url(#clip1_1_734)">
<rect x="258" y="66" width="124" height="124" rx="14" fill="#363D52" stroke="#212532" stroke-width="4"/>
</g>
<g clip-path="url(#clip2_1_734)">
<rect x="450" y="258" width="124" height="60" rx="14" fill="#363D52" stroke="#212532" stroke-width="4"/>
</g>
<g clip-path="url(#clip3_1_734)">
<rect x="642" y="258" width="124" height="28" rx="14" fill="#363D52" stroke="#212532" stroke-width="4"/>
</g>
<g clip-path="url(#clip4_1_734)">
<rect x="450" y="66" width="124" height="124" rx="14" fill="#363D52" stroke="#212532" stroke-width="4"/>
</g>
<rect x="466" y="82" width="92" height="92" rx="8" stroke="#515B7A" stroke-width="4"/>
<g clip-path="url(#clip5_1_734)">
<rect x="640" y="64" width="128" height="128" rx="16" fill="#363D52"/>
</g>
<mask id="mask0_1_734" style="mask-type:alpha" maskUnits="userSpaceOnUse" x="640" y="64" width="128" height="128">
<rect x="642" y="66" width="124" height="124" rx="14" fill="#4D4D4D" stroke="#262626" stroke-width="4"/>
</mask>
<g mask="url(#mask0_1_734)">
<path d="M704 64H750C759.941 64 768 72.0589 768 82V128H704V64Z" fill="#515B7A"/>
<path d="M640 128H704V192H658C648.059 192 640 183.941 640 174V128Z" fill="#515B7A"/>
</g>
<g clip-path="url(#clip6_1_734)">
<rect x="642" y="66" width="124" height="124" rx="14" stroke="#212532" stroke-width="4"/>
</g>
<g clip-path="url(#clip7_1_734)">
<rect x="832" y="64" width="128" height="128" rx="16" fill="#363D52"/>
</g>
<mask id="mask1_1_734" style="mask-type:alpha" maskUnits="userSpaceOnUse" x="832" y="64" width="128" height="128">
<rect x="834" y="66" width="124" height="124" rx="14" fill="#4D4D4D" stroke="#262626" stroke-width="4"/>
</mask>
<g mask="url(#mask1_1_734)">
<rect x="821" y="58" width="75" height="39" stroke="#515B7A" stroke-width="4"/>
<rect x="824" y="128" width="72" height="31" stroke="#515B7A" stroke-width="4"/>
<rect x="865" y="97" width="62" height="31" stroke="#515B7A" stroke-width="4"/>
<rect x="865" y="159" width="62" height="39" stroke="#515B7A" stroke-width="4"/>
<rect x="803" y="97" width="62" height="31" stroke="#515B7A" stroke-width="4"/>
<rect x="803" y="159" width="62" height="31" stroke="#515B7A" stroke-width="4"/>
<rect x="896" y="58" width="75" height="39" stroke="#515B7A" stroke-width="4"/>
<rect x="896" y="128" width="74" height="31" stroke="#515B7A" stroke-width="4"/>
<rect x="927" y="97" width="62" height="31" stroke="#515B7A" stroke-width="4"/>
<rect x="927" y="159" width="62" height="31" stroke="#515B7A" stroke-width="4"/>
</g>
<g clip-path="url(#clip8_1_734)">
<rect x="834" y="66" width="124" height="124" rx="14" stroke="#212532" stroke-width="4"/>
</g>
<g clip-path="url(#clip9_1_734)">
<rect x="1026" y="66" width="124" height="124" rx="14" fill="#363D52" stroke="#212532" stroke-width="4"/>
</g>
<rect x="1042" y="82" width="92" height="92" rx="8" fill="#363D52" stroke="#515B7A" stroke-width="4"/>
<mask id="mask2_1_734" style="mask-type:alpha" maskUnits="userSpaceOnUse" x="1040" y="80" width="96" height="96">
<rect x="1040" y="80" width="96" height="96" rx="10" fill="#363D52"/>
</mask>
<g mask="url(#mask2_1_734)">
<path d="M1026 94L1122.5 190.5" stroke="#515B7A" stroke-width="4"/>
<path d="M1054 66L1150.5 162.5" stroke="#515B7A" stroke-width="4"/>
</g>
<g clip-path="url(#clip10_1_734)">
<rect x="1218" y="66" width="124" height="124" rx="14" fill="#363D52" stroke="#212532" stroke-width="4"/>
</g>
<path d="M1236 92H1324" stroke="#515B7A" stroke-width="4"/>
<path d="M1236 164H1324" stroke="#515B7A" stroke-width="4"/>
<path d="M1236 68L1236 188" stroke="#515B7A" stroke-width="4"/>
<path d="M1324 68L1324 188" stroke="#515B7A" stroke-width="4"/>
<path d="M1236 128H1324" stroke="#515B7A" stroke-width="4"/>
<circle cx="128" cy="320" r="46" fill="#363D52" stroke="#212532" stroke-width="4"/>
<path d="M152.657 330.072C152.657 330.072 152.575 329.553 152.527 329.558L143.408 330.466C142.683 330.538 142.119 331.136 142.068 331.886L141.818 335.593L134.763 336.112L134.283 332.753C134.176 332.006 133.544 331.443 132.812 331.443H123.188C122.456 331.443 121.824 332.006 121.717 332.753L121.237 336.112L114.182 335.593L113.932 331.886C113.881 331.136 113.317 330.538 112.592 330.466L103.468 329.558C103.421 329.553 103.386 330.073 103.339 330.073L103.327 332.11L111.054 333.396L111.307 337.135C111.358 337.893 111.95 338.505 112.684 338.559L122.4 339.274C122.437 339.277 122.473 339.279 122.509 339.279C123.239 339.279 123.87 338.715 123.977 337.968L124.471 334.511H131.529L132.023 337.968C132.13 338.715 132.761 339.278 133.493 339.278C133.528 339.278 133.564 339.277 133.599 339.274L143.317 338.559C144.05 338.505 144.642 337.893 144.693 337.135L144.946 333.396L152.67 332.104L152.657 330.072Z" fill="white"/>
<path d="M103.339 314.712V327.073V328.643V330.072C103.366 330.072 103.394 330.073 103.421 330.076L112.543 330.984C113.021 331.031 113.396 331.428 113.429 331.923L113.71 336.08L121.668 336.666L122.216 332.829C122.287 332.332 122.7 331.963 123.188 331.963H132.812C133.3 331.963 133.713 332.332 133.784 332.829L134.332 336.666L142.29 336.08L142.571 331.923C142.605 331.428 142.979 331.032 143.457 330.984L152.576 330.076C152.603 330.073 152.63 330.072 152.657 330.072V328.846L152.661 328.845V314.712C153.945 313.042 155.162 311.201 156.094 309.652C154.67 307.149 152.924 304.912 151.059 302.84C149.329 303.739 147.649 304.757 146.062 305.841C145.268 305.026 144.373 304.36 143.495 303.663C142.631 302.947 141.659 302.422 140.736 301.811C141.011 299.699 141.146 297.62 141.201 295.451C138.82 294.214 136.282 293.394 133.714 292.805C132.688 294.583 131.751 296.51 130.934 298.393C129.966 298.226 128.993 298.164 128.019 298.152V298.15C128.012 298.15 128.006 298.152 128 298.152C127.994 298.152 127.988 298.15 127.982 298.15V298.152C127.006 298.164 126.034 298.226 125.065 298.393C124.249 296.51 123.312 294.583 122.285 292.805C119.719 293.394 117.18 294.214 114.799 295.451C114.854 297.62 114.989 299.699 115.265 301.811C114.34 302.422 113.369 302.947 112.505 303.663C111.628 304.36 110.732 305.026 109.938 305.841C108.351 304.757 106.671 303.739 104.94 302.84C103.075 304.912 101.331 307.149 99.9062 309.652C101.026 311.466 102.227 313.29 103.339 314.712Z" fill="#478CBF"/>
<path d="M144.473 332.92L144.191 337.099C144.157 337.603 143.768 338.004 143.28 338.04L133.563 338.756C133.54 338.757 133.516 338.758 133.493 338.758C133.01 338.758 132.593 338.392 132.522 337.892L131.964 333.991H124.036L123.478 337.892C123.404 338.417 122.949 338.794 122.437 338.756L112.72 338.04C112.232 338.004 111.844 337.603 111.81 337.099L111.527 332.92L103.324 332.104C103.328 333.014 103.339 334.011 103.339 334.209C103.339 343.152 114.329 347.451 127.983 347.5H128H128.017C141.671 347.451 152.657 343.152 152.657 334.209C152.657 334.007 152.669 333.014 152.673 332.104L144.473 332.92Z" fill="#478CBF"/>
<path d="M120.566 320.947C120.566 324.082 118.105 326.622 115.068 326.622C112.033 326.622 109.571 324.082 109.571 320.947C109.571 317.814 112.033 315.275 115.068 315.275C118.105 315.275 120.566 317.814 120.566 320.947Z" fill="white"/>
<path d="M119.243 321.284C119.243 323.363 117.61 325.049 115.594 325.049C113.578 325.049 111.945 323.363 111.945 321.284C111.945 319.204 113.578 317.517 115.594 317.517C117.61 317.517 119.243 319.204 119.243 321.284Z" fill="#414042"/>
<path d="M128 327.139C127.022 327.139 126.23 326.395 126.23 325.479V320.254C126.23 319.339 127.022 318.594 128 318.594C128.977 318.594 129.771 319.339 129.771 320.254V325.479C129.771 326.395 128.977 327.139 128 327.139Z" fill="white"/>
<path d="M135.434 320.947C135.434 324.082 137.895 326.622 140.932 326.622C143.967 326.622 146.429 324.082 146.429 320.947C146.429 317.814 143.967 315.275 140.932 315.275C137.895 315.275 135.434 317.814 135.434 320.947Z" fill="white"/>
<path d="M136.758 321.284C136.758 323.363 138.39 325.049 140.405 325.049C142.421 325.049 144.054 323.363 144.054 321.284C144.054 319.204 142.421 317.517 140.405 317.517C138.39 317.517 136.758 319.204 136.758 321.284Z" fill="#414042"/>
<circle cx="320" cy="320" r="46" fill="#363D52" stroke="#212532" stroke-width="4"/>
<path d="M867.578 331.628L889.87 376.211C891.199 378.871 889.265 382 886.292 382H841.708C838.735 382 836.801 378.871 838.13 376.211L860.422 331.628C861.896 328.679 866.104 328.679 867.578 331.628Z" fill="#363D52" stroke="#212532" stroke-width="4"/>
<path d="M931.578 331.628L953.87 376.211C955.199 378.871 953.265 382 950.292 382H905.708C902.735 382 900.801 378.871 902.13 376.211L924.422 331.628C925.896 328.679 930.104 328.679 931.578 331.628Z" fill="#363D52" stroke="#212532" stroke-width="4"/>
<path d="M1048 310H1098C1100.21 310 1102 308.209 1102 306V296.485C1102 292.922 1106.31 291.137 1108.83 293.657L1132.34 317.172C1133.91 318.734 1133.91 321.266 1132.34 322.828L1108.83 346.343C1106.31 348.863 1102 347.078 1102 343.515L1102 334C1102 331.791 1100.21 330 1098 330H1048C1044.69 330 1042 327.314 1042 324V316C1042 312.686 1044.69 310 1048 310Z" fill="#363D52" stroke="#212532" stroke-width="4"/>
<path d="M1248 320H1312M1312 320L1294 338M1312 320L1294 302" stroke="#363D52" stroke-width="8" stroke-linecap="round" stroke-linejoin="round"/>
<defs>
<clipPath id="clip0_1_734">
<rect width="128" height="128" fill="white" transform="translate(64 64)"/>
</clipPath>
<clipPath id="clip1_1_734">
<rect width="128" height="128" fill="white" transform="translate(256 64)"/>
</clipPath>
<clipPath id="clip2_1_734">
<rect width="128" height="64" fill="white" transform="translate(448 256)"/>
</clipPath>
<clipPath id="clip3_1_734">
<rect width="128" height="32" fill="white" transform="translate(640 256)"/>
</clipPath>
<clipPath id="clip4_1_734">
<rect width="128" height="128" fill="white" transform="translate(448 64)"/>
</clipPath>
<clipPath id="clip5_1_734">
<rect width="128" height="128" fill="white" transform="translate(640 64)"/>
</clipPath>
<clipPath id="clip6_1_734">
<rect width="128" height="128" fill="white" transform="translate(640 64)"/>
</clipPath>
<clipPath id="clip7_1_734">
<rect width="128" height="128" fill="white" transform="translate(832 64)"/>
</clipPath>
<clipPath id="clip8_1_734">
<rect width="128" height="128" fill="white" transform="translate(832 64)"/>
</clipPath>
<clipPath id="clip9_1_734">
<rect width="128" height="128" fill="white" transform="translate(1024 64)"/>
</clipPath>
<clipPath id="clip10_1_734">
<rect width="128" height="128" fill="white" transform="translate(1216 64)"/>
</clipPath>
</defs>
</svg>
